<?xml version="1.0" encoding="UTF-8"?>
<svg id="b" data-name="v" xmlns="http://www.w3.org/2000/svg" width="86" height="120" viewBox="0 0 86 120">
  <polygon points="68.71 102.86 68.71 68.57 51.57 51.43 51.57 85.71 68.71 102.86" fill="#0df"/>
  <polygon points="51.57 120 51.57 85.71 34.43 68.57 34.43 102.86 51.57 120" fill="#0df"/>
  <polygon points="85.86 85.71 85.86 51.43 68.71 34.29 68.71 68.57 85.86 85.71" fill="#0df"/>
  <polygon points="17.29 85.71 17.29 51.43 .14 34.29 .14 68.57 17.29 85.71" fill="#0df"/>
  <polygon points="34.43 68.57 34.43 34.29 17.29 17.14 17.29 51.43 34.43 68.57" fill="#0df"/>
  <polygon points="51.57 51.43 51.57 17.14 34.43 0 34.43 34.29 51.57 51.43" fill="#0df"/>
</svg>