<?xml version="1.0" encoding="UTF-8"?>
<svg id="re-md-logo" xmlns="http://www.w3.org/2000/svg" width="96" height="36" viewBox="0 0 96 36">
  <polygon fill="hsl(var(--accent-color-hsl, 260 100% 50%))" points="12 24 0 36 12 36 24 24 12 24"/>
  <polygon fill="hsl(var(--accent-color-hsl, 260 100% 50%))" points="24 24 12 36 24 36 36 24 24 24"/>
  <polygon fill="hsl(var(--accent-color-hsl, 260 100% 50%))" points="84 24 72 24 84 36 96 36 84 24"/>
  <polygon fill="hsl(var(--accent-color-hsl, 260 100% 50%))" points="60 24 72 36 84 36 72 24 60 24"/>
  <polygon fill="hsl(var(--accent-color-hsl, 260 100% 50%))" points="0 0 12 12 24 12 12 0 0 0"/>
  <polygon fill="hsl(var(--accent-color-hsl, 260 100% 50%))" points="24 0 36 12 48 12 36 0 24 0"/>
  <polygon fill="hsl(var(--accent-color-hsl, 260 100% 50%))" points="12 0 24 12 36 12 24 0 12 0"/>
  <polygon fill="hsl(var(--accent-color-hsl, 260 100% 50%))" points="84 0 72 12 84 12 96 0 84 0"/>
  <polygon fill="hsl(var(--accent-color-hsl, 260 100% 50%))" points="60 0 48 12 60 12 72 0 60 0"/>
  <polygon fill="hsl(var(--accent-color-hsl, 260 100% 50%))" points="72 0 60 12 72 12 84 0 72 0"/>
</svg>