<?xml version="1.0" encoding="UTF-8"?>
<svg xmlns="http://www.w3.org/2000/svg" style="display: none;">

  <!-- native-logo line -->
  <!-- brand color: #ffea00 -->
  <symbol id="native-logo" viewBox="0 0 80 28">
    <defs>
      <style>
        #native-logo {
          --current-stroke-width: 2px;
        }
        .vect {
          fill: none;
          stroke: currentColor;
          stroke-linecap: round;
          stroke-linejoin: round;
          stroke-width: var(--current-stroke-width, 2);
        }
      </style>
    </defs>
    <polygon stroke="currentColor" fill="none" stroke-linecap="round" stroke-linejoin="round" stroke-width="var(--current-stroke-width, 2)"
    points="26.67 9.56 8.89 9.56 0 18.44 17.78 18.44 26.67 9.56" />
    <polygon stroke="currentColor" fill="none" stroke-linecap="round" stroke-linejoin="round" stroke-width="var(--current-stroke-width, 2)" 
    points="80 9.56 62.22 9.56 53.33 18.44 71.11 18.44 80 9.56" />
    <polygon stroke="currentColor" fill="none" stroke-linecap="round" stroke-linejoin="round" stroke-width="var(--current-stroke-width, 2)"
    points="35.56 18.44 53.33 18.44 62.22 27.33 44.44 27.33 35.56 18.44" />
    <polygon stroke="currentColor" fill="none" stroke-linecap="round" stroke-linejoin="round" stroke-width="var(--current-stroke-width, 2)"
    points="26.67 9.56 44.44 9.56 53.33 18.44 35.56 18.44 26.67 9.56" />
    <polygon stroke="currentColor" fill="none" stroke-linecap="round" stroke-linejoin="round" stroke-width="var(--current-stroke-width, 2)"
    points="17.78 .67 35.56 .67 44.44 9.56 26.67 9.56 17.78 .67" />
    <polygon stroke="currentColor" fill="none" stroke-linecap="round" stroke-linejoin="round" stroke-width="var(--current-stroke-width, 2)"
    points="53.33 .67 71.11 .67 80 9.56 62.22 9.56 53.33 .67" />
    <polygon stroke="currentColor" fill="none" stroke-linecap="round" stroke-linejoin="round" stroke-width="var(--current-stroke-width, 2)"
    points="0 18.44 17.78 18.44 26.67 27.33 8.89 27.33 0 18.44" />
  </symbol>

  <!-- routerx-logo -->
  <symbol id="routerx-logo" viewBox="0 0 104 45">
    <polygon class="routerx-logo" points="59.429 29.714 89.143 29.714 104 44.571 74.286 44.571 59.429 29.714" fill="currentColor"/>
    <polygon class="routerx-logo" points="0 0 29.714 0 44.571 14.857 14.857 14.857 0 0" fill="currentColor"/>
    <polygon class="routerx-logo" points="0 29.714 29.714 29.714 44.571 44.571 14.857 44.571 0 29.714" fill="currentColor"/>
    <polygon class="routerx-logo" points="14.857 14.857 44.571 14.857 59.429 29.714 29.714 29.714 14.857 14.857" fill="currentColor"/>
    <polygon class="routerx-logo" points="104 14.857 74.286 14.857 59.429 29.714 89.143 29.714 104 14.857" fill="currentColor"/>
    <polygon class="routerx-logo" points="104 14.857 74.286 14.857 59.429 0 89.143 0 104 14.857" fill="currentColor"/>
  </symbol>

  <!-- re-md-logo -->
  <!-- brand color: #7040ff -->
  <symbol id="re-md-logo" viewBox="0 0 96 36">
    <defs>
      <style>
        .c {
          fill: currentColor;
        }
      </style>
    </defs>
    <polygon class="c" points="12 24 0 36 12 36 24 24 12 24"/>
    <polygon class="c" points="24 24 12 36 24 36 36 24 24 24"/>
    <polygon class="c" points="84 24 72 24 84 36 96 36 84 24"/>
    <polygon class="c" points="60 24 72 36 84 36 72 24 60 24"/>
    <polygon class="c" points="0 0 12 12 24 12 12 0 0 0"/>
    <polygon class="c" points="24 0 36 12 48 12 36 0 24 0"/>
    <polygon class="c" points="12 0 24 12 36 12 24 0 12 0"/>
    <polygon class="c" points="84 0 72 12 84 12 96 0 84 0"/>
    <polygon class="c" points="60 0 48 12 60 12 72 0 60 0"/>
    <polygon class="c" points="72 0 60 12 72 12 84 0 72 0"/>
  </symbol>

  <symbol id="restate-logo" viewBox="0 0 64 44">
    <defs>
      <style>
        .c {
          fill: hsl(var(--accent-color-hsl));
        }
      </style>
    </defs>
    <polygon class="c" points="32 11 10.667 11 0 22 21.333 22 32 11"/>
    <polygon class="c" points="64 22 42.667 22 32 33 53.333 33 64 22"/>
    <polygon class="c" points="21.333 0 42.667 0 53.333 11 32 11 21.333 0"/>
    <polygon class="c" points="42.667 44 21.333 44 10.667 33 32 33 42.667 44"/>
  </symbol>
  
  <!-- Copy Icon -->
  <symbol id="copy" viewBox="0 0 80 80">
    <path d="M59.38,5.69h-25.85c-5.85,0-10.62,4.76-10.62,10.62v2.31h-2.31c-5.85,0-10.62,4.76-10.62,10.62v34.46c0,5.85,4.76,10.62,10.62,10.62h25.85c5.85,0,10.62-4.76,10.62-10.62v-2.31h2.31c5.85,0,10.62-4.76,10.62-10.62V16.31c0-5.85-4.76-10.62-10.62-10.62ZM46.46,70.31h-25.85c-3.65,0-6.62-2.97-6.62-6.62V29.23c0-3.65,2.97-6.62,6.62-6.62h25.85c3.65,0,6.62,2.97,6.62,6.62v34.46c0,3.65-2.97,6.62-6.62,6.62ZM66,50.77c0,3.65-2.97,6.62-6.62,6.62h-2.31v-28.15c0-5.85-4.76-10.62-10.62-10.62h-19.54v-2.31c0-3.65,2.97-6.62,6.62-6.62h25.85c3.65,0,6.62,2.97,6.62,6.62v34.46Z" fill="currentColor"/>
  </symbol>

  <!-- External Link Icon -->
  <symbol id="external-link" viewBox="0 0 80 80">
    <path d="M59.59,36.08v23.51c0,4.33-3.51,7.84-7.84,7.84H19.43c-3.79,0-6.86-3.07-6.86-6.86V27.27c0-3.79,3.07-6.86,6.86-6.86h24.49" fill="none" stroke="currentColor" stroke-linecap="round" stroke-linejoin="round" stroke-width="4"/>
    <path d="M53.71,12.57h9.8c2.16,0,3.92,1.75,3.92,3.92v9.8" fill="none" stroke="currentColor" stroke-linecap="round" stroke-linejoin="round" stroke-width="4"/>
    <line x1="60.57" y1="19.43" x2="43.92" y2="36.08" fill="none" stroke="currentColor" stroke-linecap="round" stroke-linejoin="round" stroke-width="4"/>
  </symbol>

  <!-- Moon Icon (Dark Mode) -->
  <symbol id="icon-moon" viewBox="0 0 80 80">
    <path d="M33.25,12c-3.71,0-7.26.73-10.5,2.04,10.26,4.15,17.5,14.21,17.5,25.96s-7.24,21.8-17.5,25.96c3.24,1.31,6.79,2.04,10.5,2.04,15.46,0,28-12.54,28-28s-12.54-28-28-28Z" fill="currentColor" stroke="hsl(var(--bcolor-hsl, 0 0% 0%))" stroke-linecap="round" stroke-linejoin="round" stroke-width="4"/>
  </symbol>

  <!-- Sun Icon (Light Mode) -->
  <symbol id="icon-sun" viewBox="0 0 80 80">
    <circle cx="40" cy="40" r="28" fill="currentColor" stroke="currentColor" stroke-linecap="round" stroke-linejoin="round" stroke-width="4"/>
  </symbol>

  <!-- Numbers Icon -->
  <symbol id="icon-numbers" viewBox="0 0 80 80">
    <path d="M23.74,30.65h5.22v3.4h-15.09v-3.4h6.28V14.04l-6.12,4.54v-4.25l5.96-4.4h3.75v20.71ZM24.39,60.83c1.31-1.35,2.3-2.72,2.94-4.05.66-1.37.99-2.7.99-3.97,0-1.41-.32-2.67-.94-3.75-.63-1.09-1.52-1.95-2.64-2.54-1.11-.58-2.41-.88-3.87-.88s-2.73.3-3.84.9c-1.12.6-2.01,1.46-2.64,2.55-.62,1.08-.95,2.35-.97,3.77v.78s3.59,0,3.59,0v-.77c0-1.2.34-2.13,1.04-2.84.7-.71,1.62-1.05,2.82-1.05s2.11.34,2.8,1.04c.69.7,1.03,1.62,1.03,2.8,0,1.81-.95,3.73-2.82,5.72l-8.09,8.6v2.93h14.84v-3.4h-9.79l5.55-5.83ZM39.51,27.71v3.09h27.11v-3.09h-27.11ZM39.51,66.51h27.11v-3.09h-27.11v3.09Z" fill="currentColor"/>
  </symbol>

  <!-- Swoosh/Check Icon -->
  <symbol id="icon-swoosh" viewBox="0 0 80 80">
    <path d="M20,39.62l13.43,18.53c3.55,2.96,8.87,2.3,11.59-1.44l22.97-41.09" fill="currentColor" stroke="hsl(var(--bcolor-hsl, 0 0% 0%))" stroke-linecap="round" stroke-linejoin="round" stroke-width="4"/>
  </symbol>

  <!-- Tree/Branch Icon -->
  <symbol id="icon-tree" viewBox="0 0 80 80">
    <path d="M42,42h12.35c.83,2.33,3.04,4,5.65,4,3.31,0,6-2.69,6-6s-2.69-6-6-6c-2.61,0-4.82,1.67-5.65,4h-12.35V16h12.35c.83,2.33,3.04,4,5.65,4,3.31,0,6-2.69,6-6s-2.69-6-6-6c-2.61,0-4.82,1.67-5.65,4h-28.7c-.83-2.33-3.04-4-5.65-4-3.31,0-6,2.69-6,6s2.69,6,6,6c2.61,0,4.82-1.67,5.65-4h12.35v50c0,1.1.9,2,2,2h14.35c.83,2.33,3.04,4,5.65,4,3.31,0,6-2.69,6-6s-2.69-6-6-6c-2.61,0-4.82,1.67-5.65,4h-12.35v-22ZM58,40c0-1.1.9-2,2-2s2,.9,2,2-.9,2-2,2-2-.9-2-2ZM58,14c0-1.1.9-2,2-2s2,.9,2,2-.9,2-2,2-2-.9-2-2ZM22,14c0,1.1-.9,2-2,2s-2-.9-2-2,.9-2,2-2,2,.9,2,2ZM58,66c0-1.1.9-2,2-2s2,.9,2,2-.9,2-2,2-2-.9-2-2Z" fill="currentColor"/>
  </symbol>

  <!-- expand icon -->
  <symbol id="icon-expand" viewBox="0 0 80 80">
    <path d="M12,21.99c0-.92.23-1.83.69-2.66.97-1.75,2.81-2.83,4.8-2.83h45.02c2,0,3.84,1.08,4.8,2.83.97,1.74.91,3.88-.15,5.57l-22.51,36.01c-1.01,1.62-2.75,2.58-4.66,2.58s-3.65-.97-4.66-2.58L12.83,24.9c-.56-.89-.83-1.9-.83-2.91ZM17.49,21.99h0ZM62.51,21.99H17.49l22.51,36.01,22.51-36.01Z" fill="currentColor"/>
  </symbol>

  <!-- fold icon -->
  <symbol id="icon-fold" viewBox="0 0 80 80">
    <path d="M24.04,69.65c-.97,0-1.94-.24-2.82-.73-1.85-1.02-3-2.97-3-5.09V16.16c0-2.11,1.15-4.06,3-5.09,1.85-1.03,4.11-.96,5.9.16l38.14,23.84c1.71,1.07,2.74,2.91,2.74,4.93s-1.02,3.86-2.74,4.93l-38.14,23.84c-.94.59-2.01.88-3.08.88ZM24.04,63.84h0ZM24.04,16.16v47.67l38.14-23.84L24.04,16.16Z" fill="currentColor"/>
  </symbol>

</svg>
