<?xml version="1.0" encoding="UTF-8"?>
<svg id="b" data-name="v" xmlns="http://www.w3.org/2000/svg" width="80" height="80" viewBox="0 0 80 80">
  <path d="M59.38,5.69h-25.85c-5.85,0-10.62,4.76-10.62,10.62v2.31h-2.31c-5.85,0-10.62,4.76-10.62,10.62v34.46c0,5.85,4.76,10.62,10.62,10.62h25.85c5.85,0,10.62-4.76,10.62-10.62v-2.31h2.31c5.85,0,10.62-4.76,10.62-10.62V16.31c0-5.85-4.76-10.62-10.62-10.62ZM46.46,70.31h-25.85c-3.65,0-6.62-2.97-6.62-6.62V29.23c0-3.65,2.97-6.62,6.62-6.62h25.85c3.65,0,6.62,2.97,6.62,6.62v34.46c0,3.65-2.97,6.62-6.62,6.62ZM66,50.77c0,3.65-2.97,6.62-6.62,6.62h-2.31v-28.15c0-5.85-4.76-10.62-10.62-10.62h-19.54v-2.31c0-3.65,2.97-6.62,6.62-6.62h25.85c3.65,0,6.62,2.97,6.62,6.62v34.46Z" fill="#231f20"/>
</svg>