<?xml version="1.0" encoding="UTF-8"?>
<svg id="b" data-name="v" xmlns="http://www.w3.org/2000/svg" width="80" height="80" viewBox="0 0 80 80">
  <path d="M23.74,30.65h5.22v3.4h-15.09v-3.4h6.28V14.04l-6.12,4.54v-4.25l5.96-4.4h3.75v20.71ZM24.39,60.83c1.31-1.35,2.3-2.72,2.94-4.05.66-1.37.99-2.7.99-3.97,0-1.41-.32-2.67-.94-3.75-.63-1.09-1.52-1.95-2.64-2.54-1.11-.58-2.41-.88-3.87-.88s-2.73.3-3.84.9c-1.12.6-2.01,1.46-2.64,2.55-.62,1.08-.95,2.35-.97,3.77v.78s3.59,0,3.59,0v-.77c0-1.2.34-2.13,1.04-2.84.7-.71,1.62-1.05,2.82-1.05s2.11.34,2.8,1.04c.69.7,1.03,1.62,1.03,2.8,0,1.81-.95,3.73-2.82,5.72l-8.09,8.6v2.93h14.84v-3.4h-9.79l5.55-5.83ZM39.51,27.71v3.09h27.11v-3.09h-27.11ZM39.51,66.51h27.11v-3.09h-27.11v3.09Z"/>
</svg>