<?xml version="1.0" encoding="UTF-8"?>
<svg id="b" data-name="v" xmlns="http://www.w3.org/2000/svg" width="80" height="80" viewBox="0 0 80 80">
  <path d="M42,42h12.35c.83,2.33,3.04,4,5.65,4,3.31,0,6-2.69,6-6s-2.69-6-6-6c-2.61,0-4.82,1.67-5.65,4h-12.35V16h12.35c.83,2.33,3.04,4,5.65,4,3.31,0,6-2.69,6-6s-2.69-6-6-6c-2.61,0-4.82,1.67-5.65,4h-28.7c-.83-2.33-3.04-4-5.65-4-3.31,0-6,2.69-6,6s2.69,6,6,6c2.61,0,4.82-1.67,5.65-4h12.35v50c0,1.1.9,2,2,2h14.35c.83,2.33,3.04,4,5.65,4,3.31,0,6-2.69,6-6s-2.69-6-6-6c-2.61,0-4.82,1.67-5.65,4h-12.35v-22ZM58,40c0-1.1.9-2,2-2s2,.9,2,2-.9,2-2,2-2-.9-2-2ZM58,14c0-1.1.9-2,2-2s2,.9,2,2-.9,2-2,2-2-.9-2-2ZM22,14c0,1.1-.9,2-2,2s-2-.9-2-2,.9-2,2-2,2,.9,2,2ZM58,66c0-1.1.9-2,2-2s2,.9,2,2-.9,2-2,2-2-.9-2-2Z" fill="#231f20"/>
</svg>